<svg height="512" width="512" xmlns="http://www.w3.org/2000/svg"><g fill="#F17005"><path d="M495.249 270.215v-126.92c0-60.167-48.949-109.117-109.117-109.117-50.258 0-92.68 34.156-105.294 80.472-18.623-2.754-37.972-2.383-56.413 1.13a7.434 7.434 0 00-5.912 8.694c.75 4.058 4.759 6.692 8.694 5.912 16.565-3.154 33.955-3.528 50.709-1.134a109.775 109.775 0 00-.901 14.044v46.548c-.718-.031-39.869-.055-39.869-.055-24.366 0-44.741 17.397-49.368 40.421a105.246 105.246 0 00-11.14-4.051v-10.342a72.51 72.51 0 0015.699-28.623c7.281-3.675 14.655-11.718 19.02-20.986 6.123-12.61 4.115-25.384-8.425-31.391-2.612-1.23-5.257-1.928-7.857-2.098v-31.494c0-27.767-22.59-50.357-50.357-50.357h-37.705c-27.767 0-50.357 22.59-50.357 50.357v31.494c-2.601.169-5.246.867-7.858 2.098-12.541 6.011-14.547 18.777-8.425 31.391 4.364 9.267 11.736 17.309 19.02 20.985a72.519 72.519 0 0015.7 28.625v10.342C30.693 239.495 0 280.509 0 327.221c0 5.902 4.802 10.704 10.704 10.704h87.559c10.004 27.546 26.999 51.908 49.466 70.888-11.182 16.867-17.596 36.998-17.596 58.304 0 5.902 4.802 10.703 10.704 10.703h230.326c5.902 0 10.704-4.802 10.704-10.704 0-46.708-30.695-87.725-75.095-101.06v-11.32a72.349 72.349 0 0011.231-16.812h79.84c-5.691 14.095-13.448 27.222-23.138 39.134a7.436 7.436 0 005.762 12.126 7.42 7.42 0 005.772-2.743c11.897-14.624 21.131-30.926 27.514-48.516h87.541c5.902 0 10.704-4.802 10.704-10.704.002-20.75-6.086-40.403-16.749-57.006zm-203.364-126.92c0-51.968 42.279-94.248 94.248-94.248s94.248 42.279 94.248 94.248v108.637c-11.938-11.747-26.731-20.732-43.475-25.764V212a72.778 72.778 0 0018.437-48.466v-35.306c0-16.702-13.589-30.291-30.292-30.291H346.86c-16.703 0-30.292 13.589-30.292 30.291v35.306a72.784 72.784 0 0018.794 48.868v13.75a105.172 105.172 0 00-11.141 4.056c-3.492-17.376-15.955-31.542-32.335-37.448v-49.465zM414.812 211.7l-18.004 12.102a19.381 19.381 0 01-21.707 0L357.097 211.7a57.945 57.945 0 01-25.661-48.166v-35.306c0-8.504 6.919-15.423 15.424-15.423h78.191c8.504 0 15.424 6.918 15.424 15.423v35.306a57.948 57.948 0 01-25.663 48.166zm-64.582 13.299l16.577 11.143c5.816 3.909 12.482 5.863 19.147 5.863s13.332-1.954 19.147-5.863l16.935-11.383v11.711c0 19.797-16.106 35.903-35.904 35.903-19.797 0-35.903-16.106-35.903-35.903v-11.471zm-35.446 88.266c-3.034 1.037-5.301 3.534-6.066 6.686a57.705 57.705 0 01-23.955 34.416l-17.953 12.066a19.31 19.31 0 01-21.621 0l-17.952-12.066a57.716 57.716 0 01-23.956-34.421c-.764-3.149-3.033-5.646-6.064-6.68-3.774-1.29-9.882-7.003-13.259-14.474-4.085-9.036 2.831-13.869 6.278-11.639 2.28 1.475 5.192 1.549 7.567.242a7.434 7.434 0 003.856-6.516V262.15c0-9.565 7.782-17.347 17.347-17.347h73.987c9.565 0 17.347 7.782 17.347 17.347v18.728a7.433 7.433 0 0011.423 6.274c4.514-1.895 11.603.836 6.278 11.639-3.493 7.418-9.484 13.184-13.257 14.474zm-94.687 54.217l16.799 11.292c5.802 3.9 12.454 5.85 19.104 5.85 6.651 0 13.303-1.95 19.105-5.85l16.799-11.291v8.883c0 19.797-16.106 35.903-35.903 35.903s-35.904-16.106-35.904-35.903zm17.05-162.824h37.705c17.739 0 32.479 13.083 35.08 30.106a32.019 32.019 0 00-16.939-4.829h-73.987a32.01 32.01 0 00-16.939 4.829c2.601-17.024 17.342-30.106 35.08-30.106zM89.964 228.565l16.799 11.291c5.803 3.901 12.453 5.851 19.104 5.851 6.65-.001 13.303-1.951 19.104-5.851l16.8-11.292v8.884c0 19.797-16.107 35.903-35.904 35.903s-35.903-16.106-35.903-35.903zm17.051-162.827h37.705c17.739 0 32.479 13.083 35.08 30.106a32.013 32.013 0 00-16.94-4.829H88.874a32.01 32.01 0 00-16.939 4.829c2.601-17.023 17.342-30.106 35.08-30.106zm-39.928 108.61c-3.775-1.29-9.767-7.058-13.26-14.474-1.688-3.585-2.301-6.632-1.727-8.582-.21-2.047 4.558-6.136 8.004-3.058 2.024 1.808 5.19 1.547 7.568.243a7.436 7.436 0 003.856-6.517v-18.729c0-9.565 7.782-17.347 17.347-17.347h73.986c9.565 0 17.347 7.782 17.347 17.347v18.729a7.436 7.436 0 003.856 6.517c2.378 1.304 5.69 1.716 7.568-.243 2.595-2.707 7.347.081 8.004 3.058.438 1.985-.039 4.997-1.727 8.582-3.493 7.417-9.485 13.184-13.253 14.472-3.038 1.036-5.306 3.535-6.07 6.687a57.708 57.708 0 01-23.955 34.416l-17.953 12.066a19.305 19.305 0 01-21.62 0l-17.952-12.066a57.72 57.72 0 01-23.957-34.418c-.762-3.149-3.029-5.647-6.062-6.683zm8.202 67.375c2.18 26 24.024 46.497 50.578 46.497s48.397-20.494 50.579-46.492a90.185 90.185 0 0110.344 4.411v25.5c-2.601.169-5.247.867-7.858 2.098-9.183 4.325-16.218 14.843-8.425 31.392 3.399 7.217 8.625 13.681 14.211 17.929H14.964c1.685-36.955 25.693-69.119 60.325-81.335zm38.894 96.202h79.815a72.34 72.34 0 0011.23 16.811v11.325c-19.146 5.753-35.743 16.663-48.431 30.962-18.837-16.058-33.398-36.288-42.614-59.098zm252.721 125.027H145.097c1.689-36.943 25.742-69.158 60.399-81.358 2.626 25.548 24.273 45.544 50.504 45.544s47.88-19.997 50.504-45.548c34.672 12.197 58.714 44.385 60.4 81.362zm-39.621-139.896c5.585-4.247 10.811-10.712 14.21-17.93 7.794-16.548.758-27.066-8.425-31.391-2.613-1.23-5.257-1.928-7.858-2.098v-25.501a90.249 90.249 0 0110.421-4.433c2.628 25.546 24.275 45.539 50.503 45.539 26.23 0 47.876-19.993 50.504-45.539 34.647 12.201 58.71 44.435 60.4 81.353z"/><circle cx="100.404" cy="147.533" r="8.643"/><circle cx="150.522" cy="147.533" r="8.643"/><path d="M106.454 190.698c4.647 4.633 11.723 7.29 19.413 7.29 7.691 0 14.767-2.657 19.414-7.291a7.435 7.435 0 00-10.499-10.529c-1.365 1.361-4.519 2.951-8.915 2.951-4.395 0-7.55-1.59-8.915-2.951a7.435 7.435 0 00-10.498 10.53z"/><circle cx="230.537" cy="286.452" r="8.643"/><circle cx="280.655" cy="286.452" r="8.643"/><path d="M264.915 319.087c-1.366 1.361-4.52 2.951-8.915 2.951-4.396 0-7.55-1.589-8.915-2.951a7.435 7.435 0 00-10.498 10.53c4.646 4.632 11.723 7.289 19.413 7.289s14.765-2.657 19.412-7.289a7.433 7.433 0 00.016-10.514 7.431 7.431 0 00-10.513-.016z"/><circle cx="360.67" cy="146.556" r="8.643"/><circle cx="410.788" cy="146.556" r="8.643"/><path d="M395.047 179.191c-1.365 1.361-4.519 2.951-8.915 2.951-4.395 0-7.55-1.59-8.915-2.952a7.435 7.435 0 00-10.498 10.53c4.647 4.633 11.723 7.29 19.413 7.29 7.691 0 14.767-2.657 19.414-7.291a7.435 7.435 0 00-10.499-10.528z"/></g></svg>