<svg height="649pt" viewBox="-25 -20 649 649.335" width="649pt" xmlns="http://www.w3.org/2000/svg"><path d="M119.832 158.996c-33.121 0-59.969-26.851-59.969-59.969 0-33.12 26.848-59.965 59.969-59.965 33.117 0 59.965 26.844 59.965 59.965-.031 33.102-26.863 59.934-59.965 59.97zm0-99.945c-22.082 0-39.98 17.894-39.98 39.976 0 22.078 17.898 39.98 39.98 39.98 22.078 0 39.977-17.902 39.977-39.98 0-22.082-17.899-39.976-39.977-39.976zM359.7 438.844v59.969H249.761V361.675l-59.969-19.992v-102.73h89.95c27.585-.036 49.94-22.391 49.976-49.974v-19.988H49.867C22.281 169.02-.07 191.375-.105 218.965v109.937c0 16.559 13.425 29.985 29.984 29.985h19.988v179.902H-.105v69.965h19.992v-49.977h139.922v49.977h19.988V518.8h179.902v89.953h19.992V458.832h199.891v149.922h19.988v-169.91zM49.866 228.957v109.941H29.88c-5.52 0-9.992-4.476-9.992-9.996V218.965c0-16.567 13.422-29.985 29.98-29.985h259.86c0 16.56-13.426 29.985-29.985 29.985H169.805v137.133l59.965 19.988v122.726h-29.98V391.938l-99.95-37.48V538.79H69.86V228.957zM159.81 498.813v39.976h-39.977V383.305l59.965 22.484v93.024zm0 0"/><path d="M439.656 408.86h79.957V158.995h57.871L479.637 0l-97.848 158.996h57.867zM417.57 139.007l62.067-100.871 62.066 100.87h-42.078V388.87h-39.977V139.008zm0 0"/></svg>