<svg xmlns="http://www.w3.org/2000/svg" viewBox="0 0 481.829 481.829"><g fill="#F17005"><path d="M256.621 180.247c0-41.355-33.645-75-75-75s-75 33.645-75 75 33.645 75 75 75 75-33.644 75-75zm-75.001 45c-24.813 0-45-20.187-45-45s20.187-45 45-45 45 20.187 45 45-20.186 45-45 45z"/><path d="M481.829 459.765l-71.348-71.349c12.528-16.886 19.949-37.777 19.949-60.37 0-46.31-31.166-85.477-73.624-97.632 4.269-15.558 6.435-31.617 6.435-47.945C363.24 82.324 281.765.85 181.62.85S0 82.324 0 182.469c0 41.232 13.525 80.127 39.139 112.514L181.62 474.122l66.901-84.114c18.584 24.051 47.7 39.571 80.376 39.571 22.594 0 43.485-7.421 60.371-19.95l71.348 71.349 21.213-21.213zM181.62 425.928L62.643 276.342C41.288 249.339 30 216.879 30 182.469 30 98.866 98.016 30.85 181.62 30.85s151.62 68.016 151.62 151.619c0 15.058-2.197 29.837-6.536 44.072-54.976 1.171-99.34 46.253-99.34 101.505 0 11.661 1.982 22.867 5.617 33.306l-51.361 64.576zm147.277-26.349c-39.443 0-71.533-32.09-71.533-71.533s32.09-71.533 71.533-71.533 71.532 32.09 71.532 71.533-32.089 71.533-71.532 71.533z"/></g></svg>