<svg height="512" viewBox="0 0 64 64" width="512" xmlns="http://www.w3.org/2000/svg" fill="#F17005"><path d="M62 39h-7a.996.996 0 00-.707.293L46.586 47H34a1.001 1.001 0 010-2h5c.266 0 .52-.105.707-.293l4-4A1 1 0 0043 39H29c-.245 0-.481.09-.664.252L19.62 47H17v-1a1 1 0 00-1-1h-3v-1a1 1 0 00-1-1H2a1 1 0 00-1 1v18a1 1 0 001 1h10a1 1 0 001-1v-1h3a1 1 0 001-1v-1h27c.266 0 .52-.105.707-.293l18-18A1 1 0 0062 39zM11 61H3V45h8v15zm4-2h-2V47h2zm28.586-2H17v-8h3c.245 0 .481-.09.664-.252L29.38 41h11.206l-2 2H34c-1.654 0-3 1.346-3 3s1.346 3 3 3h13c.266 0 .52-.105.707-.293L55.414 41h4.172zM36 32c4.963 0 9-4.038 9-9s-4.037-9-9-9-9 4.038-9 9 4.037 9 9 9zm0-16c3.859 0 7 3.14 7 7s-3.141 7-7 7-7-3.14-7-7 3.141-7 7-7z"/><path d="M34 25h-2c0 1.654 1.346 3 3 3v1h2v-1c1.654 0 3-1.346 3-3s-1.346-3-3-3v-2c.552 0 1 .449 1 1h2c0-1.654-1.346-3-3-3v-1h-2v1c-1.654 0-3 1.346-3 3s1.346 3 3 3v2c-.552 0-1-.449-1-1zm0-4c0-.551.448-1 1-1v2c-.552 0-1-.449-1-1zm3 3a1.001 1.001 0 010 2z"/><path d="M62 11h-3V8a1 1 0 00-1-1h-3V2a1 1 0 00-1-1H2a1 1 0 00-1 1v22a1 1 0 001 1h3v5a1 1 0 001 1h3v3a1 1 0 001 1h52a1 1 0 001-1V12a1 1 0 00-1-1zM5 8v15H3V3h50v4H6a1 1 0 00-1 1zm4 4v17H7V9h50v2H10a1 1 0 00-1 1zm52 21H11V13h50z"/><path d="M59 30V16a1 1 0 00-1-1H46v2h11v12H46v2h12a1 1 0 001-1zm-45 1h12v-2H15V17h11v-2H14a1 1 0 00-1 1v14a1 1 0 001 1z"/><path d="M18 20a1 1 0 00-1 1v4a1 1 0 001 1h6a1 1 0 001-1v-4a1 1 0 00-1-1zm5 4h-4v-2h4zm31 2a1 1 0 001-1v-4a1 1 0 00-1-1h-6a1 1 0 00-1 1v4a1 1 0 001 1zm-5-4h4v2h-4z"/></svg>